<svg width="1160" height="349" viewBox="0 0 1160 349" fill="none" xmlns="http://www.w3.org/2000/svg">
<g style="mix-blend-mode:plus-lighter" filter="url(#filter0_d_2109_2468)">
<path d="M105.424 36.552C114.47 36.552 121.552 39.2827 126.672 44.744C131.878 50.2053 134.48 57.672 134.48 67.144V109H109.392V70.472C109.392 66.632 108.326 63.6453 106.192 61.512C104.059 59.3787 101.158 58.312 97.4883 58.312C93.819 58.312 90.9177 59.3787 88.7843 61.512C86.651 63.6453 85.5843 66.632 85.5843 70.472V109H60.4963V70.472C60.4963 66.632 59.4297 63.6453 57.2963 61.512C55.2483 59.3787 52.3897 58.312 48.7203 58.312C44.9657 58.312 42.0217 59.3787 39.8883 61.512C37.755 63.6453 36.6883 66.632 36.6883 70.472V109H11.6003V37.192H36.6883V46.664C38.907 43.592 41.7657 41.16 45.2643 39.368C48.8483 37.4907 52.9443 36.552 57.5523 36.552C62.843 36.552 67.5363 37.704 71.6323 40.008C75.8137 42.312 79.099 45.5547 81.4883 49.736C84.0483 45.8107 87.419 42.6533 91.6003 40.264C95.7817 37.7893 100.39 36.552 105.424 36.552ZM205.313 72.264C205.313 74.2267 205.185 76.1893 204.929 78.152H157.441C157.697 82.0773 158.764 85.0213 160.641 86.984C162.604 88.8613 165.079 89.8 168.065 89.8C172.247 89.8 175.233 87.9227 177.025 84.168H203.777C202.668 89.1173 200.492 93.5547 197.249 97.48C194.092 101.32 190.081 104.349 185.217 106.568C180.353 108.787 174.977 109.896 169.089 109.896C162.007 109.896 155.692 108.403 150.145 105.416C144.684 102.429 140.375 98.1627 137.217 92.616C134.145 87.0693 132.609 80.5413 132.609 73.032C132.609 65.5227 134.145 59.0373 137.217 53.576C140.289 48.0293 144.556 43.7627 150.017 40.776C155.564 37.7893 161.921 36.296 169.089 36.296C176.172 36.296 182.444 37.7467 187.905 40.648C193.367 43.5493 197.633 47.7307 200.705 53.192C203.777 58.568 205.313 64.9253 205.313 72.264ZM179.713 65.992C179.713 62.92 178.689 60.5307 176.641 58.824C174.593 57.032 172.033 56.136 168.961 56.136C165.889 56.136 163.372 56.9893 161.409 58.696C159.447 60.3173 158.167 62.7493 157.569 65.992H179.713ZM272.668 72.264C272.668 74.2267 272.54 76.1893 272.284 78.152H224.796C225.052 82.0773 226.119 85.0213 227.996 86.984C229.959 88.8613 232.434 89.8 235.42 89.8C239.602 89.8 242.588 87.9227 244.38 84.168H271.132C270.023 89.1173 267.847 93.5547 264.604 97.48C261.447 101.32 257.436 104.349 252.572 106.568C247.708 108.787 242.332 109.896 236.444 109.896C229.362 109.896 223.047 108.403 217.5 105.416C212.039 102.429 207.73 98.1627 204.572 92.616C201.5 87.0693 199.964 80.5413 199.964 73.032C199.964 65.5227 201.5 59.0373 204.572 53.576C207.644 48.0293 211.911 43.7627 217.372 40.776C222.919 37.7893 229.276 36.296 236.444 36.296C243.527 36.296 249.799 37.7467 255.26 40.648C260.722 43.5493 264.988 47.7307 268.06 53.192C271.132 58.568 272.668 64.9253 272.668 72.264ZM247.068 65.992C247.068 62.92 246.044 60.5307 243.996 58.824C241.948 57.032 239.388 56.136 236.316 56.136C233.244 56.136 230.727 56.9893 228.764 58.696C226.802 60.3173 225.522 62.7493 224.924 65.992H247.068ZM313.783 87.624V109H302.903C284.557 109 275.383 99.912 275.383 81.736V58.056H266.551V37.192H275.383V19.784H300.599V37.192H313.655V58.056H300.599V82.12C300.599 84.0827 301.026 85.4907 301.879 86.344C302.818 87.1973 304.354 87.624 306.487 87.624H313.783Z" fill="white"/>
</g>
<g style="mix-blend-mode:plus-lighter" filter="url(#filter1_d_2109_2468)">
<path d="M526.083 197.624V219H515.203C496.857 219 487.683 209.912 487.683 191.736V168.056H478.851V147.192H487.683V129.784H512.899V147.192H525.955V168.056H512.899V192.12C512.899 194.083 513.326 195.491 514.179 196.344C515.118 197.197 516.654 197.624 518.787 197.624H526.083ZM573.302 146.552C581.494 146.552 587.98 149.325 592.758 154.872C597.622 160.333 600.054 167.757 600.054 177.144V219H574.966V180.472C574.966 176.376 573.9 173.176 571.766 170.872C569.633 168.483 566.774 167.288 563.19 167.288C559.436 167.288 556.492 168.483 554.358 170.872C552.225 173.176 551.158 176.376 551.158 180.472V219H526.07V124.28H551.158V157.432C553.377 154.189 556.364 151.587 560.118 149.624C563.958 147.576 568.353 146.552 573.302 146.552ZM670.908 182.264C670.908 184.227 670.78 186.189 670.524 188.152H623.036C623.292 192.077 624.359 195.021 626.236 196.984C628.199 198.861 630.674 199.8 633.66 199.8C637.842 199.8 640.828 197.923 642.62 194.168H669.372C668.263 199.117 666.087 203.555 662.844 207.48C659.687 211.32 655.676 214.349 650.812 216.568C645.948 218.787 640.572 219.896 634.684 219.896C627.602 219.896 621.287 218.403 615.74 215.416C610.279 212.429 605.97 208.163 602.812 202.616C599.74 197.069 598.204 190.541 598.204 183.032C598.204 175.523 599.74 169.037 602.812 163.576C605.884 158.029 610.151 153.763 615.612 150.776C621.159 147.789 627.516 146.296 634.684 146.296C641.767 146.296 648.039 147.747 653.5 150.648C658.962 153.549 663.228 157.731 666.3 163.192C669.372 168.568 670.908 174.925 670.908 182.264ZM645.308 175.992C645.308 172.92 644.284 170.531 642.236 168.824C640.188 167.032 637.628 166.136 634.556 166.136C631.484 166.136 628.967 166.989 627.004 168.696C625.042 170.317 623.762 172.749 623.164 175.992H645.308Z" fill="white"/>
</g>
<g style="mix-blend-mode:plus-lighter" filter="url(#filter2_d_2109_2468)">
<path d="M881.906 308.624V330H871.026C852.679 330 843.506 320.912 843.506 302.736V279.056H834.674V258.192H843.506V240.784H868.722V258.192H881.778V279.056H868.722V303.12C868.722 305.083 869.149 306.491 870.002 307.344C870.941 308.197 872.477 308.624 874.61 308.624H881.906ZM950.501 293.264C950.501 295.227 950.373 297.189 950.117 299.152H902.629C902.885 303.077 903.952 306.021 905.829 307.984C907.792 309.861 910.266 310.8 913.253 310.8C917.434 310.8 920.421 308.923 922.213 305.168H948.965C947.856 310.117 945.68 314.555 942.437 318.48C939.28 322.32 935.269 325.349 930.405 327.568C925.541 329.787 920.165 330.896 914.277 330.896C907.194 330.896 900.88 329.403 895.333 326.416C889.872 323.429 885.562 319.163 882.405 313.616C879.333 308.069 877.797 301.541 877.797 294.032C877.797 286.523 879.333 280.037 882.405 274.576C885.477 269.029 889.744 264.763 895.205 261.776C900.752 258.789 907.109 257.296 914.277 257.296C921.36 257.296 927.632 258.747 933.093 261.648C938.554 264.549 942.821 268.731 945.893 274.192C948.965 279.568 950.501 285.925 950.501 293.264ZM924.901 286.992C924.901 283.92 923.877 281.531 921.829 279.824C919.781 278.032 917.221 277.136 914.149 277.136C911.077 277.136 908.56 277.989 906.597 279.696C904.634 281.317 903.354 283.749 902.757 286.992H924.901ZM945.152 294.032C945.152 286.608 946.475 280.123 949.12 274.576C951.851 269.029 955.52 264.763 960.128 261.776C964.821 258.789 970.027 257.296 975.744 257.296C980.693 257.296 984.96 258.277 988.544 260.24C992.128 262.203 994.901 264.848 996.864 268.176V258.192H1021.95V330H996.864V320.016C994.901 323.344 992.085 325.989 988.416 327.952C984.832 329.915 980.608 330.896 975.744 330.896C970.027 330.896 964.821 329.403 960.128 326.416C955.52 323.429 951.851 319.163 949.12 313.616C946.475 307.984 945.152 301.456 945.152 294.032ZM996.864 294.032C996.864 289.424 995.584 285.797 993.024 283.152C990.549 280.507 987.477 279.184 983.808 279.184C980.053 279.184 976.939 280.507 974.464 283.152C971.989 285.712 970.752 289.339 970.752 294.032C970.752 298.64 971.989 302.309 974.464 305.04C976.939 307.685 980.053 309.008 983.808 309.008C987.477 309.008 990.549 307.685 993.024 305.04C995.584 302.395 996.864 298.725 996.864 294.032ZM1118.55 257.552C1127.6 257.552 1134.68 260.283 1139.8 265.744C1145.01 271.205 1147.61 278.672 1147.61 288.144V330H1122.52V291.472C1122.52 287.632 1121.45 284.645 1119.32 282.512C1117.19 280.379 1114.29 279.312 1110.62 279.312C1106.95 279.312 1104.05 280.379 1101.91 282.512C1099.78 284.645 1098.71 287.632 1098.71 291.472V330H1073.62V291.472C1073.62 287.632 1072.56 284.645 1070.42 282.512C1068.38 280.379 1065.52 279.312 1061.85 279.312C1058.09 279.312 1055.15 280.379 1053.02 282.512C1050.88 284.645 1049.82 287.632 1049.82 291.472V330H1024.73V258.192H1049.82V267.664C1052.03 264.592 1054.89 262.16 1058.39 260.368C1061.98 258.491 1066.07 257.552 1070.68 257.552C1075.97 257.552 1080.66 258.704 1084.76 261.008C1088.94 263.312 1092.23 266.555 1094.62 270.736C1097.18 266.811 1100.55 263.653 1104.73 261.264C1108.91 258.789 1113.52 257.552 1118.55 257.552Z" fill="white"/>
</g>
<defs>
<filter id="filter0_d_2109_2468" x="0.000585556" y="8.18394" width="325.383" height="113.312" filterUnits="userSpaceOnUse" color-interpolation-filters="sRGB">
<feFlood flood-opacity="0" result="BackgroundImageFix"/>
<feColorMatrix in="SourceAlpha" type="matrix" values="0 0 0 0 0 0 0 0 0 0 0 0 0 0 0 0 0 0 127 0" result="hardAlpha"/>
<feOffset/>
<feGaussianBlur stdDeviation="5.8"/>
<feComposite in2="hardAlpha" operator="out"/>
<feColorMatrix type="matrix" values="0 0 0 0 0 0 0 0 0 0 0 0 0 0 0 0 0 0 1 0"/>
<feBlend mode="normal" in2="BackgroundImageFix" result="effect1_dropShadow_2109_2468"/>
<feBlend mode="normal" in="SourceGraphic" in2="effect1_dropShadow_2109_2468" result="shape"/>
</filter>
<filter id="filter1_d_2109_2468" x="467.252" y="112.68" width="215.257" height="118.816" filterUnits="userSpaceOnUse" color-interpolation-filters="sRGB">
<feFlood flood-opacity="0" result="BackgroundImageFix"/>
<feColorMatrix in="SourceAlpha" type="matrix" values="0 0 0 0 0 0 0 0 0 0 0 0 0 0 0 0 0 0 127 0" result="hardAlpha"/>
<feOffset/>
<feGaussianBlur stdDeviation="5.8"/>
<feComposite in2="hardAlpha" operator="out"/>
<feColorMatrix type="matrix" values="0 0 0 0 0 0 0 0 0 0 0 0 0 0 0 0 0 0 1 0"/>
<feBlend mode="normal" in2="BackgroundImageFix" result="effect1_dropShadow_2109_2468"/>
<feBlend mode="normal" in="SourceGraphic" in2="effect1_dropShadow_2109_2468" result="shape"/>
</filter>
<filter id="filter2_d_2109_2468" x="823.074" y="229.184" width="336.134" height="113.312" filterUnits="userSpaceOnUse" color-interpolation-filters="sRGB">
<feFlood flood-opacity="0" result="BackgroundImageFix"/>
<feColorMatrix in="SourceAlpha" type="matrix" values="0 0 0 0 0 0 0 0 0 0 0 0 0 0 0 0 0 0 127 0" result="hardAlpha"/>
<feOffset/>
<feGaussianBlur stdDeviation="5.8"/>
<feComposite in2="hardAlpha" operator="out"/>
<feColorMatrix type="matrix" values="0 0 0 0 0 0 0 0 0 0 0 0 0 0 0 0 0 0 1 0"/>
<feBlend mode="normal" in2="BackgroundImageFix" result="effect1_dropShadow_2109_2468"/>
<feBlend mode="normal" in="SourceGraphic" in2="effect1_dropShadow_2109_2468" result="shape"/>
</filter>
</defs>
</svg>
