<svg width="495" height="479" viewBox="0 0 495 479" fill="none" xmlns="http://www.w3.org/2000/svg">
<g filter="url(#filter0_g_2105_1378)">
<path d="M4 31C4 16.0883 16.0883 4 31 4H464C478.912 4 491 16.0883 491 31V448C491 462.912 478.912 475 464 475H31C16.0883 475 4 462.912 4 448V31Z" fill="url(#paint0_linear_2105_1378)"/>
<path d="M4 31C4 16.0883 16.0883 4 31 4H464C478.912 4 491 16.0883 491 31V448C491 462.912 478.912 475 464 475H31C16.0883 475 4 462.912 4 448V31Z" fill="url(#paint1_linear_2105_1378)"/>
</g>
<defs>
<filter id="filter0_g_2105_1378" x="0" y="0" width="495" height="479" filterUnits="userSpaceOnUse" color-interpolation-filters="sRGB">
<feFlood flood-opacity="0" result="BackgroundImageFix"/>
<feBlend mode="normal" in="SourceGraphic" in2="BackgroundImageFix" result="shape"/>
<feTurbulence type="fractalNoise" baseFrequency="0.25 0.25" numOctaves="3" seed="6535" />
<feDisplacementMap in="shape" scale="8" xChannelSelector="R" yChannelSelector="G" result="displacedImage" width="100%" height="100%" />
<feMerge result="effect1_texture_2105_1378">
<feMergeNode in="displacedImage"/>
</feMerge>
</filter>
<linearGradient id="paint0_linear_2105_1378" x1="554.5" y1="79.5" x2="70.5875" y2="260.826" gradientUnits="userSpaceOnUse">
<stop stop-color="#FFDF98"/>
<stop offset="0.461538" stop-color="white"/>
<stop offset="1" stop-color="#FFDF98"/>
</linearGradient>
<linearGradient id="paint1_linear_2105_1378" x1="95.3048" y1="-93" x2="247.5" y2="475" gradientUnits="userSpaceOnUse">
<stop offset="0.264423" stop-color="#CC332E" stop-opacity="0.1"/>
<stop offset="1" stop-color="#C50F09"/>
</linearGradient>
</defs>
</svg>
